<?xml version="1.0" encoding="utf-8"?>
<!-- Generator: Adobe Illustrator 21.1.0, SVG Export Plug-In . SVG Version: 6.00 Build 0)  -->
<svg version="1.1" id="Layer_1" xmlns="http://www.w3.org/2000/svg" xmlns:xlink="http://www.w3.org/1999/xlink" x="0px" y="0px"
	 viewBox="0 0 291 288" style="enable-background:new 0 0 291 288;" xml:space="preserve">
<style type="text/css">
	.st0{fill:#FFCD7E;}
	.st1{fill:#FFA62A;}
	.st2{fill:#FFFFFF;}
	.st3{fill:#B00053;}
	.st4{fill:#754C24;}
</style>
<g>
	<circle class="st0" cx="53.5" cy="122.9" r="21.1"/>
	<circle class="st1" cx="53.5" cy="122.9" r="12.6"/>
</g>
<g>
	<circle class="st0" cx="238.9" cy="122.9" r="21.1"/>
	<circle class="st1" cx="238.9" cy="122.9" r="12.6"/>
</g>
<path class="st0" d="M194.8,274.5H96.4c-23.6,0-43-19.3-43-43V56c0-23.6,19.3-43,43-43h98.4c23.6,0,43,19.3,43,43v175.5
	C237.8,255.2,218.4,274.5,194.8,274.5z"/>
<path class="st1" d="M152.7,144.7h-13.3c-3.8,0-7-3.2-7-7V95.1c0-3.8,3.1-7,7-7h13.3c3.9,0,7,3.2,7,7v42.6
	C159.7,141.6,156.6,144.7,152.7,144.7z"/>
<g>
	<circle class="st2" cx="188.6" cy="90.7" r="16.6"/>
	<ellipse cx="188.6" cy="90.7" rx="4.1" ry="4.3"/>
</g>
<g>
	<circle class="st2" cx="102.7" cy="92.7" r="16.6"/>
	<ellipse cx="102.7" cy="92.7" rx="4.1" ry="4.3"/>
</g>
<g>
	<path class="st3" d="M147,224.7c16.6,0,30.6-10.6,35.8-25.4h-71.6C116.4,214.1,130.5,224.7,147,224.7z"/>
	<path class="st2" d="M109.1,189.6c0.3,3.4,1,6.7,2.1,9.8h71.6c1.1-3.1,1.8-6.4,2.1-9.8H109.1z"/>
</g>
<path class="st4" d="M33.5,70.6h28c3.6,0,6.5,2.9,6.5,6.5v20.2c0,3.6-2.9,6.5-6.5,6.5h-28c-3.6,0-6.5-2.9-6.5-6.5V77.1
	C27,73.5,29.9,70.6,33.5,70.6z"/>
<path class="st4" d="M228.6,71.5h28c3.6,0,6.5,2.9,6.5,6.5v20.2c0,3.6-2.9,6.5-6.5,6.5h-28c-3.6,0-6.5-2.9-6.5-6.5V78
	C222.1,74.5,225.1,71.5,228.6,71.5z"/>
<path class="st4" d="M196.8,193.5c-4.7-15.6-25-27.3-49.4-27.3s-44.7,11.7-49.4,27.3H196.8z"/>
</svg>
