<?xml version="1.0" encoding="utf-8"?>
<!-- Generator: Adobe Illustrator 21.1.0, SVG Export Plug-In . SVG Version: 6.00 Build 0)  -->
<svg version="1.1" id="Layer_1" xmlns="http://www.w3.org/2000/svg" xmlns:xlink="http://www.w3.org/1999/xlink" x="0px" y="0px"
	 viewBox="0 0 122 65" style="enable-background:new 0 0 122 65;" xml:space="preserve">
<style type="text/css">
	.st0{fill:#754C24;}
	.st1{fill:#FFFFFF;}
</style>
<g>
	<path class="st0" d="M63.7,61.8c-13.6,0-29.1-4.2-42.4-11.6C10.1,44,2.2,36.5,2.2,32s7.8-12,19.1-18.2C34.6,6.5,50.1,2.2,63.7,2.2
		c18.4,0,32.8,7.3,39.7,11.6c9.6,6,16.4,13.5,16.4,18.2s-6.7,12.1-16.4,18.2C96.5,54.5,82.1,61.8,63.7,61.8z"/>
	<path d="M63.7,2.5C82,2.5,96.4,9.7,103.2,14c9.6,6,16.3,13.4,16.3,18s-6.7,12-16.3,18C96.4,54.3,82,61.5,63.7,61.5
		c-13.6,0-29-4.2-42.3-11.6C10.3,43.8,2.5,36.4,2.5,32s7.8-11.8,18.9-17.9C34.7,6.7,50.1,2.5,63.7,2.5 M63.7,2C32.6,2,2,23,2,32
		s30.6,30,61.7,30C94.8,62,120,41,120,32S94.8,2,63.7,2L63.7,2z"/>
</g>
<g>
	<path class="st1" d="M65.4,34.4c-23.4,0-31.9-0.2-32.3-0.9c0,0,0.1-0.1,0.1-0.2c0.1-0.2,0.2-0.4,0.2-0.6c0-0.2-0.1-0.4-0.2-0.6
		c-0.1-0.2-0.2-0.4-0.1-0.5c0.7-1.1,10.6-1.6,32.2-1.6c12.8,0,29.8,0.1,30.4,1.4c0,0.1-0.2,0.3-0.3,0.5c-0.2,0.2-0.4,0.5-0.4,0.8
		c0,0.3,0.3,0.6,0.5,0.8c0.1,0.1,0.2,0.2,0.2,0.2C95.3,34.2,87.3,34.4,65.4,34.4z"/>
	<path d="M65.4,30.3c7.1,0,28.3,0,30.1,1.2c-0.1,0.1-0.1,0.2-0.2,0.2c-0.2,0.3-0.5,0.6-0.5,1c0,0.4,0.3,0.7,0.5,0.9
		C93,34.1,82,34.2,65.4,34.2c-21.6,0-30.5-0.2-31.9-0.7c0.1-0.2,0.3-0.4,0.3-0.7c0-0.3-0.1-0.5-0.2-0.7c0-0.1-0.1-0.2-0.1-0.2
		C34.3,30.3,57.7,30.3,65.4,30.3 M65.4,29.8c-38.1,0-32.2,1.6-32.2,2.9c0,1.3-5.9,2,32.2,2s29.9-0.6,29.9-2
		C95.3,31.4,103.5,29.8,65.4,29.8L65.4,29.8z"/>
</g>
<g>
	<path class="st1" d="M42,38.8c-0.8,0-0.8-5.9-0.8-8.7c0-4.8,0.8-4.8,1.1-4.8c0.1,0,0.2,0,0.3,0c0.1,0,0.3,0,0.4,0
		c0.1,0,0.3,0,0.4,0c0.1,0,0.1,0,0.1,0c0.2,0.2,0.2,2.4,0.2,4.8C43.8,36.2,42.5,38.8,42,38.8z"/>
	<path d="M42.3,25.5c0.1,0,0.2,0,0.3,0c0.1,0,0.3,0,0.4,0c0.1,0,0.3,0,0.4,0c0.1,0.7,0.1,3,0.1,4.5c0,5.8-1,8.1-1.5,8.4
		c-0.5-0.8-0.5-6.1-0.5-8.4C41.5,25.9,42.1,25.5,42.3,25.5 M43.5,25c-0.1,0-0.3,0.1-0.5,0.1c-0.2,0-0.5-0.1-0.7-0.1
		c-0.7,0-1.3,0.6-1.3,5c0,6,0.2,9,1,9s2-2.9,2-9C44,25.6,43.9,25,43.5,25L43.5,25z"/>
</g>
<g>
	<path class="st1" d="M49,38.8c-0.8,0-0.8-5.9-0.8-8.7c0-4.8,0.8-4.8,1.1-4.8c0.1,0,0.2,0,0.3,0c0.1,0,0.3,0,0.4,0
		c0.1,0,0.3,0,0.4,0c0.1,0,0.1,0,0.1,0c0.2,0.2,0.2,2.4,0.2,4.8C50.8,36.2,49.5,38.8,49,38.8z"/>
	<path d="M49.3,25.5c0.1,0,0.2,0,0.3,0c0.1,0,0.3,0,0.4,0c0.1,0,0.3,0,0.4,0c0.1,0.7,0.1,3,0.1,4.5c0,5.8-1,8.1-1.5,8.4
		c-0.5-0.8-0.5-6.1-0.5-8.4C48.5,25.9,49.1,25.5,49.3,25.5 M50.5,25c-0.1,0-0.3,0.1-0.5,0.1c-0.2,0-0.5-0.1-0.7-0.1
		c-0.7,0-1.3,0.6-1.3,5c0,6,0.2,9,1,9s2-2.9,2-9C51,25.6,50.9,25,50.5,25L50.5,25z"/>
</g>
<g>
	<path class="st1" d="M57,38.8c-0.8,0-0.8-5.9-0.8-8.7c0-4.8,0.8-4.8,1.1-4.8c0.1,0,0.2,0,0.3,0c0.1,0,0.3,0,0.4,0
		c0.1,0,0.3,0,0.4,0c0.1,0,0.1,0,0.1,0c0.2,0.2,0.2,2.4,0.2,4.8C58.8,36.2,57.5,38.8,57,38.8z"/>
	<path d="M57.3,25.5c0.1,0,0.2,0,0.3,0c0.1,0,0.3,0,0.4,0c0.1,0,0.3,0,0.4,0c0.1,0.7,0.1,3,0.1,4.5c0,5.8-1,8.1-1.5,8.4
		c-0.5-0.8-0.5-6.1-0.5-8.4C56.5,25.9,57.1,25.5,57.3,25.5 M58.5,25c-0.1,0-0.3,0.1-0.5,0.1c-0.2,0-0.5-0.1-0.7-0.1
		c-0.7,0-1.3,0.6-1.3,5c0,6,0.2,9,1,9s2-2.9,2-9C59,25.6,58.9,25,58.5,25L58.5,25z"/>
</g>
<g>
	<path class="st1" d="M64,38.8c-0.8,0-0.8-5.9-0.8-8.7c0-4.8,0.8-4.8,1.1-4.8c0.1,0,0.2,0,0.3,0c0.1,0,0.3,0,0.4,0
		c0.1,0,0.3,0,0.4,0c0.1,0,0.1,0,0.1,0c0.2,0.2,0.2,2.4,0.2,4.8C65.8,36.2,64.5,38.8,64,38.8z"/>
	<path d="M64.3,25.5c0.1,0,0.2,0,0.3,0c0.1,0,0.3,0,0.4,0c0.1,0,0.3,0,0.4,0c0.1,0.7,0.1,3,0.1,4.5c0,5.8-1,8.1-1.5,8.4
		c-0.5-0.8-0.5-6.1-0.5-8.4C63.5,25.9,64.1,25.5,64.3,25.5 M65.5,25c-0.1,0-0.3,0.1-0.5,0.1c-0.2,0-0.5-0.1-0.7-0.1
		c-0.7,0-1.3,0.6-1.3,5c0,6,0.2,9,1,9s2-2.9,2-9C66,25.6,65.9,25,65.5,25L65.5,25z"/>
</g>
<g>
	<path class="st1" d="M72,38.8c-0.8,0-0.8-5.9-0.8-8.7c0-4.8,0.8-4.8,1.1-4.8c0.1,0,0.2,0,0.3,0c0.1,0,0.3,0,0.4,0
		c0.1,0,0.3,0,0.4,0c0.1,0,0.1,0,0.1,0c0.2,0.2,0.2,2.4,0.2,4.8C73.8,36.2,72.5,38.8,72,38.8z"/>
	<path d="M72.3,25.5c0.1,0,0.2,0,0.3,0c0.1,0,0.3,0,0.4,0c0.1,0,0.3,0,0.4,0c0.1,0.7,0.1,3,0.1,4.5c0,5.8-1,8.1-1.5,8.4
		c-0.5-0.8-0.5-6.1-0.5-8.4C71.5,25.9,72.1,25.5,72.3,25.5 M73.5,25c-0.1,0-0.3,0.1-0.5,0.1c-0.2,0-0.5-0.1-0.7-0.1
		c-0.7,0-1.3,0.6-1.3,5c0,6,0.2,9,1,9s2-2.9,2-9C74,25.6,73.9,25,73.5,25L73.5,25z"/>
</g>
<g>
	<path class="st1" d="M80,38.8c-0.8,0-0.8-5.9-0.8-8.7c0-4.8,0.8-4.8,1.1-4.8c0.1,0,0.2,0,0.3,0c0.1,0,0.3,0,0.4,0
		c0.1,0,0.3,0,0.4,0c0.1,0,0.1,0,0.1,0c0.2,0.2,0.2,2.4,0.2,4.8C81.8,36.2,80.5,38.8,80,38.8z"/>
	<path d="M80.3,25.5c0.1,0,0.2,0,0.3,0c0.1,0,0.3,0,0.4,0c0.1,0,0.3,0,0.4,0c0.1,0.7,0.1,3,0.1,4.5c0,5.8-1,8.1-1.5,8.4
		c-0.5-0.8-0.5-6.1-0.5-8.4C79.5,25.9,80.1,25.5,80.3,25.5 M81.5,25c-0.1,0-0.3,0.1-0.5,0.1c-0.2,0-0.5-0.1-0.7-0.1
		c-0.7,0-1.3,0.6-1.3,5c0,6,0.2,9,1,9s2-2.9,2-9C82,25.6,81.9,25,81.5,25L81.5,25z"/>
</g>
</svg>
