<?xml version="1.0" encoding="utf-8"?>
<!-- Generator: Adobe Illustrator 21.1.0, SVG Export Plug-In . SVG Version: 6.00 Build 0)  -->
<svg version="1.1" id="Layer_1" xmlns="http://www.w3.org/2000/svg" xmlns:xlink="http://www.w3.org/1999/xlink" x="0px" y="0px"
	 viewBox="0 0 232 232" style="enable-background:new 0 0 232 232;" xml:space="preserve">
<style type="text/css">
	.st0{fill:#BE4E29;}
	.st1{fill:#F6E6E0;}
</style>
<g>
	<path class="st0" d="M15.1,106.1c5.8-15,13-29.3,22.9-42c10.3-13.2,22.4-24.5,36.4-33.9c8.1-5.4,16.6-9.5,25.2-13.8
		c2.7-1.4,5.6-2.5,8.4-3.7c2.7-0.7,3.7,1.5,5.1,2.9c20.7,20.6,41.4,41.3,62.1,62c14.5,14.5,29.1,29,43.6,43.5
		c-5.2,16.2-13.3,30.9-23.6,44.4c-11.4,14.9-25.1,27.3-41.2,36.9c-9.2,5.5-19,9.8-28.8,14.1c-0.6,0.3-1.4,0.1-2.1,0.2
		c-8.6-8.6-17.1-17.2-25.7-25.8c-26.7-26.8-53.5-53.6-80.2-80.3C16.1,109.4,14.2,108.4,15.1,106.1z M122.4,104.5
		c-1.6,1.4-3.4,3.5-5.6,4.8c-1.7,1-2.6-1.2-3.6-2.2c-1.6-1.5-2.7-2.6-4.8-0.5c-2.1,2.1-0.6,3.2,0.8,4.3c2.8,2.2,2.6,3.9,0,6.3
		c-2.3,2.1-4.1,4.5-6.8,0.6c-1.2-1.7-2.6-2.7-4.7-0.6c-2.1,2.1-0.7,3.1,0.7,4.3c2,1.8,3.8,3.4,0.6,5.9c-2.3,1.8-4.1,5.1-7.1,0.9
		c-1.2-1.6-2.5-2.8-4.7-0.6c-2.2,2.3-0.5,3.3,0.7,4.8c0.8,1,2.9,1.9,2.1,3.2c-1.3,2.1-3.2,4-5.2,5.3c-1.6,1.1-2.6-1.2-3.7-2.1
		c-1.5-1.3-2.6-2.7-4.7-0.5c-2.1,2.2-0.5,3.2,0.8,4.4c2.2,2,3,3.7,0.3,6.1c-2,1.7,0.1,2.9,1.1,4.1c0.9,1.1,2.2,2.5,3.4,0.8
		c2.8-3.8,4.7-2,6.6,0.6c1.3,1.7,2.4,1.8,4.1,0.2c2-1.8,1.3-2.9-0.2-4.4c-1.1-1-3.2-2.1-2.7-3.4c0.8-2.5,3.2-4.3,5.3-5.7
		c2-1.4,2.7,1.3,3.8,2.2c1.5,1.2,2.4,2.7,4.5,0.7c2-1.9,1.5-3.5-0.4-4.8c-4.2-2.9-1.4-4.6,0.7-7.1c2.4-2.9,3.9-2,5.8,0.3
		c1.3,1.6,2.5,2.9,4.7,0.7c2.3-2.3,0.5-3.3-0.8-4.7c-1-1-3.2-1.9-1.9-3.6c1.4-2,3.2-4.1,5.3-5.2c1.9-1,2.8,1.7,4,2.9
		c1.5,1.5,2.6,1.6,4.1,0c1.6-1.6,1.6-2.6-0.1-4.1c-1.2-1.1-3.6-2.2-2.9-3.7c1.2-2.3,3.2-4.4,5.3-5.7c1.7-1.1,2.7,1.4,3.8,2.5
		c1.7,1.8,3,2,4.8,0c2-2.2,0.3-3.4-1.1-4.4c-3.5-2.6-1.5-4.4,0.6-6.6c2-2.2,3.7-3.3,6-0.4c1.2,1.5,2.4,3.6,4.9,0.9
		c2.7-2.8-0.1-3.9-1.3-4.9c-3.2-2.7-1-4.2,0.8-6c1.7-1.6,3-4.5,5.9-1.2c1.3,1.5,2.5,4.1,5.3,1.3c2.6-2.6-0.1-3.6-1.2-4.9
		c-1.6-1.8-2.4-3.3,0-5.1c2.7-2.1-0.1-3.2-1-4.6c-1.2-1.8-2.4-1.6-3.7-0.1c-1.9,2-3.4,3.2-5.3-0.3c-0.7-1.3-2.9-2.7-5.2-0.4
		c-2.8,2.6,0.3,3.1,1.1,4.4c0.7,1,2.8,1.5,2.3,2.7c-1,2.5-3.2,4.2-5.3,5.7c-1.9,1.4-2.8-1.1-3.9-2.1c-1.4-1.2-2.3-2.8-4.4-0.7
		c-2.1,2.1-1.1,3.2,0.5,4.7c1,1,3.3,1.9,2.2,3.5c-1.4,2.2-3.4,4.3-5.6,5.5c-1.4,0.8-2.6-1.6-3.7-2.8c-1.4-1.4-2.4-2.1-4.1-0.3
		c-1.7,1.7-1.8,2.9,0,4.4C120.7,101.1,122.1,102,122.4,104.5z"/>
	<path class="st1" d="M218.9,121.1c-14.5-14.5-29.1-29-43.6-43.5c-20.7-20.7-41.4-41.4-62.1-62c-1.4-1.4-2.5-3.6-5.1-2.9
		c7.1-1.3,13.3-5.2,20.7-6.1c6.4-0.8,12.6-2.8,19.1-2.9c0,1.5,1.2,2.1,2.1,3c24.7,24.8,49.5,49.5,74.3,74.3c0.8,0.8,1.5,2.2,3.1,1.5
		c0.4,8.4-2,16.3-4,24.3c-0.8,3.2-1.2,6.4-1.9,9.6C221,118.2,220.4,119.9,218.9,121.1z"/>
	<path class="st1" d="M15.1,106.1c-0.8,2.3,1,3.3,2.2,4.5C44,137.4,70.8,164.2,97.5,191c8.6,8.6,17.1,17.2,25.7,25.8
		c-1.6,2.6-4.7,2-7,3c-2.6,1.1-6.2,1.5-8.9,2.5c-4.6,1.7-9.5,0.3-13.9,2.7c-1.9,1.1-4.9,0.2-7.4,0.2c-0.6-0.7-1.2-1.5-1.9-2.2
		c-20.6-20.5-41.1-41.1-61.7-61.6c-5.1-5.1-10.1-10.3-15.5-15.8c-0.6,2-0.9,3.2-1.2,4.3c-0.4-8,1.4-15.7,3.4-23.3
		c1.6-6.1,3.2-12.3,4.7-18.4C14.1,107.3,14.1,106.4,15.1,106.1z"/>
	<path class="st0" d="M5.7,149.9c0.3-1.2,0.7-2.3,1.2-4.3c5.4,5.5,10.4,10.6,15.5,15.8c20.5,20.6,41.1,41.1,61.7,61.6
		c0.7,0.7,1.3,1.5,1.9,2.2c-6,0-11.8,1.6-17.9,1c-12.9-1.2-25.7-2.3-37.9-7.4c-12.2-5.1-17.3-14.9-20.7-26.6
		C5.5,178.3,5.6,164.1,5.7,149.9z"/>
	<path class="st0" d="M227.3,82.5c-1.6,0.8-2.3-0.7-3.1-1.5C199.5,56.3,174.7,31.5,150,6.7c-0.8-0.8-2.1-1.5-2.1-3
		c8,0,16-0.4,23.9,0c13,0.7,25.7,3.2,37.2,9.9c7,4,10.6,10.5,13.2,17.7c3.8,10.4,5.2,21.3,5.3,32.3
		C227.6,69.9,227.4,76.2,227.3,82.5z"/>
	<path class="st1" d="M122.4,104.5c-0.4-2.5-1.8-3.4-2.9-4.3c-1.8-1.6-1.7-2.8,0-4.4c1.7-1.7,2.8-1.1,4.1,0.3
		c1.1,1.1,2.3,3.6,3.7,2.8c2.2-1.2,4.2-3.3,5.6-5.5c1.1-1.6-1.2-2.6-2.2-3.5c-1.6-1.5-2.6-2.7-0.5-4.7c2.1-2.1,3-0.5,4.4,0.7
		c1.1,1,2,3.5,3.9,2.1c2.1-1.5,4.3-3.3,5.3-5.7c0.5-1.2-1.6-1.7-2.3-2.7c-0.8-1.3-3.9-1.8-1.1-4.4c2.3-2.2,4.5-0.9,5.2,0.4
		c1.9,3.5,3.4,2.3,5.3,0.3c1.3-1.4,2.5-1.6,3.7,0.1c1,1.4,3.8,2.5,1,4.6c-2.4,1.9-1.6,3.3,0,5.1c1.2,1.3,3.9,2.3,1.2,4.9
		c-2.8,2.7-4,0.2-5.3-1.3c-2.8-3.3-4.2-0.4-5.9,1.2c-1.9,1.8-4.1,3.3-0.8,6c1.2,1,4,2.1,1.3,4.9c-2.5,2.6-3.7,0.5-4.9-0.9
		c-2.4-2.8-4-1.7-6,0.4c-2,2.2-4.1,3.9-0.6,6.6c1.4,1,3,2.2,1.1,4.4c-1.8,2-3,1.7-4.8,0c-1.1-1.1-2.1-3.6-3.8-2.5
		c-2.2,1.4-4.2,3.5-5.3,5.7c-0.7,1.4,1.7,2.6,2.9,3.7c1.7,1.5,1.7,2.5,0.1,4.1c-1.6,1.6-2.6,1.5-4.1,0c-1.2-1.2-2.1-3.9-4-2.9
		c-2.1,1.1-3.9,3.2-5.3,5.2c-1.2,1.8,1,2.6,1.9,3.6c1.3,1.4,3.1,2.4,0.8,4.7c-2.2,2.2-3.4,0.9-4.7-0.7c-1.9-2.3-3.4-3.1-5.8-0.3
		c-2,2.4-4.9,4.2-0.7,7.1c1.9,1.3,2.4,2.8,0.4,4.8c-2,2-3,0.5-4.5-0.7c-1.1-0.9-1.8-3.6-3.8-2.2c-2.1,1.5-4.4,3.2-5.3,5.7
		c-0.4,1.3,1.7,2.4,2.7,3.4c1.5,1.5,2.3,2.6,0.2,4.4c-1.7,1.5-2.8,1.4-4.1-0.2c-2-2.6-3.9-4.4-6.6-0.6c-1.2,1.6-2.5,0.2-3.4-0.8
		c-1-1.2-3.1-2.4-1.1-4.1c2.8-2.4,1.9-4.1-0.3-6.1c-1.3-1.2-2.9-2.2-0.8-4.4c2.1-2.2,3.2-0.8,4.7,0.5c1.1,0.9,2,3.1,3.7,2.1
		c2-1.3,3.9-3.2,5.2-5.3c0.9-1.3-1.2-2.2-2.1-3.2c-1.3-1.5-2.9-2.5-0.7-4.8c2.2-2.2,3.5-1,4.7,0.6c3.1,4.2,4.8,0.8,7.1-0.9
		c3.3-2.5,1.4-4.1-0.6-5.9c-1.4-1.3-2.7-2.3-0.7-4.3c2.1-2.2,3.5-1.2,4.7,0.6c2.7,3.8,4.5,1.5,6.8-0.6c2.6-2.4,2.8-4.1,0-6.3
		c-1.4-1.1-2.9-2.2-0.8-4.3c2.1-2.1,3.2-1,4.8,0.5c1,1,1.9,3.2,3.6,2.2C119.1,108,120.8,105.9,122.4,104.5z"/>
</g>
</svg>
