<?xml version="1.0" encoding="utf-8"?>
<!-- Generator: Adobe Illustrator 21.1.0, SVG Export Plug-In . SVG Version: 6.00 Build 0)  -->
<svg version="1.1" id="Layer_1" xmlns="http://www.w3.org/2000/svg" xmlns:xlink="http://www.w3.org/1999/xlink" x="0px" y="0px"
	 viewBox="0 0 288 288" style="enable-background:new 0 0 288 288;" xml:space="preserve">
<style type="text/css">
	.st0{fill:#BE4E29;}
	.st1{fill:#F6E6E0;}
</style>
<g>
	<path class="st0" d="M24.3,133.9c6.6-17.1,14.9-33.5,26.2-48c11.8-15.1,25.6-28,41.6-38.7c9.3-6.2,19-10.9,28.8-15.8
		c3.1-1.6,6.4-2.9,9.6-4.2c3.1-0.8,4.2,1.7,5.8,3.3c23.7,23.5,47.3,47.2,71,70.8c16.6,16.6,33.3,33.1,49.8,49.7
		c-5.9,18.5-15.2,35.3-27,50.7c-13,17-28.7,31.2-47.1,42.2c-10.5,6.3-21.7,11.2-32.9,16.1c-0.7,0.3-1.6,0.1-2.4,0.2
		c-9.8-9.8-19.5-19.7-29.4-29.5c-30.5-30.6-61.1-61.2-91.6-91.8C25.5,137.7,23.3,136.5,24.3,133.9z M146.9,132.1
		c-1.8,1.6-3.9,4-6.4,5.5c-1.9,1.1-3-1.4-4.1-2.5c-1.8-1.7-3.1-3-5.5-0.6s-0.7,3.7,0.9,4.9c3.2,2.5,3,4.5,0,7.2
		c-2.6,2.4-4.7,5.1-7.8,0.7c-1.4-1.9-3-3.1-5.4-0.7s-0.8,3.5,0.8,4.9c2.3,2.1,4.3,3.9,0.7,6.7c-2.6,2.1-4.7,5.8-8.1,1
		c-1.4-1.8-2.9-3.2-5.4-0.7c-2.5,2.6-0.6,3.8,0.8,5.5c0.9,1.1,3.3,2.2,2.4,3.7c-1.5,2.4-3.7,4.6-5.9,6.1c-1.8,1.3-3-1.4-4.2-2.4
		c-1.7-1.5-3-3.1-5.4-0.6c-2.4,2.5-0.6,3.7,0.9,5c2.5,2.3,3.4,4.2,0.3,7c-2.3,1.9,0.1,3.3,1.3,4.7c1,1.3,2.5,2.9,3.9,0.9
		c3.2-4.3,5.4-2.3,7.5,0.7c1.5,1.9,2.7,2.1,4.7,0.2c2.3-2.1,1.5-3.3-0.2-5c-1.3-1.1-3.7-2.4-3.1-3.9c0.9-2.9,3.7-4.9,6.1-6.5
		c2.3-1.6,3.1,1.5,4.3,2.5c1.7,1.4,2.7,3.1,5.1,0.8c2.3-2.2,1.7-4-0.5-5.5c-4.8-3.3-1.6-5.3,0.8-8.1c2.7-3.3,4.5-2.3,6.6,0.3
		c1.5,1.8,2.9,3.3,5.4,0.8c2.6-2.6,0.6-3.8-0.9-5.4c-1.1-1.1-3.7-2.2-2.2-4.1c1.6-2.3,3.7-4.7,6.1-5.9c2.2-1.1,3.2,1.9,4.6,3.3
		c1.7,1.7,3,1.8,4.7,0c1.8-1.8,1.8-3-0.1-4.7c-1.4-1.3-4.1-2.5-3.3-4.2c1.4-2.6,3.7-5,6.1-6.5c1.9-1.3,3.1,1.6,4.3,2.9
		c1.9,2.1,3.4,2.3,5.5,0c2.3-2.5,0.3-3.9-1.3-5c-4-3-1.7-5,0.7-7.5c2.3-2.5,4.2-3.8,6.9-0.5c1.4,1.7,2.7,4.1,5.6,1
		c3.1-3.2-0.1-4.5-1.5-5.6c-3.7-3.1-1.1-4.8,0.9-6.9c1.9-1.8,3.4-5.1,6.7-1.4c1.5,1.7,2.9,4.7,6.1,1.5c3-3-0.1-4.1-1.4-5.6
		c-1.8-2.1-2.7-3.8,0-5.8c3.1-2.4-0.1-3.7-1.1-5.3c-1.4-2.1-2.7-1.8-4.2-0.1c-2.2,2.3-3.9,3.7-6.1-0.3c-0.8-1.5-3.3-3.1-5.9-0.5
		c-3.2,3,0.3,3.5,1.3,5c0.8,1.1,3.2,1.7,2.6,3.1c-1.1,2.9-3.7,4.8-6.1,6.5c-2.2,1.6-3.2-1.3-4.5-2.4c-1.6-1.4-2.6-3.2-5-0.8
		c-2.4,2.4-1.3,3.7,0.6,5.4c1.1,1.1,3.8,2.2,2.5,4c-1.6,2.5-3.9,4.9-6.4,6.3c-1.6,0.9-3-1.8-4.2-3.2c-1.6-1.6-2.7-2.4-4.7-0.3
		c-1.9,1.9-2.1,3.3,0,5C145,128.2,146.6,129.2,146.9,132.1z"/>
	<path class="st1" d="M257.2,151.1c-16.6-16.6-33.3-33.1-49.8-49.7c-23.7-23.7-47.3-47.3-71-70.8c-1.6-1.6-2.9-4.1-5.8-3.3
		c8.1-1.5,15.2-5.9,23.7-7c7.3-0.9,14.4-3.2,21.8-3.3c0,1.7,1.4,2.4,2.4,3.4c28.2,28.3,56.6,56.6,84.9,84.9c0.9,0.9,1.7,2.5,3.5,1.7
		c0.5,9.6-2.3,18.6-4.6,27.8c-0.9,3.7-1.4,7.3-2.2,11C259.6,147.7,258.9,149.7,257.2,151.1z"/>
	<path class="st1" d="M24.3,133.9c-0.9,2.6,1.1,3.8,2.5,5.1c30.5,30.6,61.1,61.2,91.6,91.9c9.8,9.8,19.5,19.7,29.4,29.5
		c-1.8,3-5.4,2.3-8,3.4c-3,1.3-7.1,1.7-10.2,2.9c-5.3,1.9-10.9,0.3-15.9,3.1c-2.2,1.3-5.6,0.2-8.5,0.2c-0.7-0.8-1.4-1.7-2.2-2.5
		c-23.5-23.4-47-47-70.5-70.4c-5.8-5.8-11.5-11.8-17.7-18.1c-0.7,2.3-1,3.7-1.4,4.9c-0.5-9.1,1.6-17.9,3.9-26.6
		c1.8-7,3.7-14.1,5.4-21C23.2,135.3,23.2,134.3,24.3,133.9z"/>
	<path class="st0" d="M13.6,184c0.3-1.4,0.8-2.6,1.4-4.9c6.2,6.3,11.9,12.1,17.7,18.1c23.4,23.5,47,47,70.5,70.4
		c0.8,0.8,1.5,1.7,2.2,2.5c-6.9,0-13.5,1.8-20.5,1.1c-14.7-1.4-29.4-2.6-43.3-8.5c-13.9-5.8-19.8-17-23.7-30.4
		C13.3,216.4,13.5,200.2,13.6,184z"/>
	<path class="st0" d="M266.8,106.9c-1.8,0.9-2.6-0.8-3.5-1.7C235,77,206.7,48.7,178.5,20.3c-0.9-0.9-2.4-1.7-2.4-3.4
		c9.1,0,18.3-0.5,27.3,0c14.9,0.8,29.4,3.7,42.5,11.3c8,4.6,12.1,12,15.1,20.2c4.3,11.9,5.9,24.3,6.1,36.9
		C267.1,92.5,266.9,99.7,266.8,106.9z"/>
	<path class="st1" d="M146.9,132.1c-0.5-2.9-2.1-3.9-3.3-4.9c-2.1-1.8-1.9-3.2,0-5c1.9-1.9,3.2-1.3,4.7,0.3c1.3,1.3,2.6,4.1,4.2,3.2
		c2.5-1.4,4.8-3.8,6.4-6.3c1.3-1.8-1.4-3-2.5-4c-1.8-1.7-3-3.1-0.6-5.4c2.4-2.4,3.4-0.6,5,0.8c1.3,1.1,2.3,4,4.5,2.4
		c2.4-1.7,4.9-3.8,6.1-6.5c0.6-1.4-1.8-1.9-2.6-3.1c-0.9-1.5-4.5-2.1-1.3-5c2.6-2.5,5.1-1,5.9,0.5c2.2,4,3.9,2.6,6.1,0.3
		c1.5-1.6,2.9-1.8,4.2,0.1c1.1,1.6,4.3,2.9,1.1,5.3c-2.7,2.2-1.8,3.8,0,5.8c1.4,1.5,4.5,2.6,1.4,5.6c-3.2,3.1-4.6,0.2-6.1-1.5
		c-3.2-3.8-4.8-0.5-6.7,1.4c-2.2,2.1-4.7,3.8-0.9,6.9c1.4,1.1,4.6,2.4,1.5,5.6c-2.9,3-4.2,0.6-5.6-1c-2.7-3.2-4.6-1.9-6.9,0.5
		c-2.3,2.5-4.7,4.5-0.7,7.5c1.6,1.1,3.4,2.5,1.3,5c-2.1,2.3-3.4,1.9-5.5,0c-1.3-1.3-2.4-4.1-4.3-2.9c-2.5,1.6-4.8,4-6.1,6.5
		c-0.8,1.6,1.9,3,3.3,4.2c1.9,1.7,1.9,2.9,0.1,4.7c-1.8,1.8-3,1.7-4.7,0c-1.4-1.4-2.4-4.5-4.6-3.3c-2.4,1.3-4.5,3.7-6.1,5.9
		c-1.4,2.1,1.1,3,2.2,4.1c1.5,1.6,3.5,2.7,0.9,5.4c-2.5,2.5-3.9,1-5.4-0.8c-2.2-2.6-3.9-3.5-6.6-0.3c-2.3,2.7-5.6,4.8-0.8,8.1
		c2.2,1.5,2.7,3.2,0.5,5.5c-2.3,2.3-3.4,0.6-5.1-0.8c-1.3-1-2.1-4.1-4.3-2.5c-2.4,1.7-5,3.7-6.1,6.5c-0.5,1.5,1.9,2.7,3.1,3.9
		c1.7,1.7,2.6,3,0.2,5c-1.9,1.7-3.2,1.6-4.7-0.2c-2.3-3-4.5-5-7.5-0.7c-1.4,1.8-2.9,0.2-3.9-0.9c-1.1-1.4-3.5-2.7-1.3-4.7
		c3.2-2.7,2.2-4.7-0.3-7c-1.5-1.4-3.3-2.5-0.9-5c2.4-2.5,3.7-0.9,5.4,0.6c1.3,1,2.3,3.5,4.2,2.4c2.3-1.5,4.5-3.7,5.9-6.1
		c1-1.5-1.4-2.5-2.4-3.7c-1.5-1.7-3.3-2.9-0.8-5.5c2.5-2.5,4-1.1,5.4,0.7c3.5,4.8,5.5,0.9,8.1-1c3.8-2.9,1.6-4.7-0.7-6.7
		c-1.6-1.5-3.1-2.6-0.8-4.9c2.4-2.5,4-1.4,5.4,0.7c3.1,4.3,5.1,1.7,7.8-0.7c3-2.7,3.2-4.7,0-7.2c-1.6-1.3-3.3-2.5-0.9-4.9
		c2.4-2.4,3.7-1.1,5.5,0.6c1.1,1.1,2.2,3.7,4.1,2.5C143.1,136.1,145.1,133.7,146.9,132.1z"/>
</g>
</svg>
