<?xml version="1.0" encoding="utf-8"?>
<!-- Generator: Adobe Illustrator 21.1.0, SVG Export Plug-In . SVG Version: 6.00 Build 0)  -->
<svg version="1.1" id="Layer_1" xmlns="http://www.w3.org/2000/svg" xmlns:xlink="http://www.w3.org/1999/xlink" x="0px" y="0px"
	 viewBox="0 0 576 576" style="enable-background:new 0 0 576 576;" xml:space="preserve">
<style type="text/css">
	.st0{fill:#6930DB;}
	.st1{fill:#F0F0F1;}
	.st2{fill:#B8BEC2;}
	.st3{fill:#95A5A6;}
	.st4{fill:#E1E5E5;}
	.st5{fill:#BCC2C6;}
</style>
<path class="st0" d="M117.2,218.7c28.5,5.9,48.5,21.9,58.4,49.4c2.3,6.5,3.2,13.7,4.9,21.3c2-0.2,4.2-0.3,6.5-0.7
	c16.1-2.6,32.3-5.4,48.5-7.6c3.4-0.4,7,1.6,10.5,2.5c2.7,6.2,5.5,12.5,8.2,18.7c-1.6,2.5-2.7,6.2-4.9,7.2
	c-41.3,18.9-82.8,37.6-124.2,56.2c-25.1,6.7-48,2.8-68.5-13C27,330.1,19.7,285.5,41,253.9C59.3,226.6,85.1,215.5,117.2,218.7z
	 M68,331.3c20.4,19.6,53.2,18.8,73-1.7c20.4-21.1,20-54.1-0.9-74c-20.3-19.4-53.1-18.4-73,2.3C47,278.8,47.3,311.4,68,331.3z"/>
<path class="st0" d="M289.4,325.1c1,3.7,3.1,7.5,2.7,11c-2,18.1-4.7,36.2-7.1,54.6c1.2,0.4,2.1,1,3.1,1c17.6,0.8,32.8,7.2,45.9,18.5
	c9.8,8.5,16.5,19.3,20.6,31.6c0.9,2.6,1.7,5.3,2.6,7.9c3.8,21.9-0.4,42.1-13.2,60.8c-24.3,35.7-79.1,42.8-110.3,14.3
	c-24.3-22.1-31-49.2-21.9-81c17-40,34-80,51-120c1.5-3.6,3.3-6.6,7.8-6.4C276.8,320,283.1,322.5,289.4,325.1z M319.3,429.4
	c-20.3-19.7-53.4-19-73.1,1.5c-19.9,20.7-19.9,53.9-0.1,73.2c21,20.4,53.5,19.8,73.9-1.3C340.3,482,339.9,449.4,319.3,429.4z"/>
<path class="st1" d="M186,50.9c3.5-3.9,6.9-7.9,10.5-11.7c0.4-0.5,1.7-0.1,2.6-0.2c-0.1,0.9,0,1.9-0.4,2.6c-1.2,2.1-2.7,4.1-4,6.1
	C191.8,48.8,188.9,49.9,186,50.9z"/>
<path class="st1" d="M39.8,202.7c-2.6,1.6-5.2,3.1-7.8,4.7c-0.6-3.8,4.8-10.3,11-13.4C41.8,196.9,40.8,199.8,39.8,202.7z"/>
<path class="st2" d="M270.5,317.4c3.8-8.8,7.6-17.6,12.1-28.1c-10.6,4.9-19.6,8.9-28.5,13c-2.7-6.2-5.5-12.5-8.2-18.7
	c11.6-5.2,23.3-10.4,34.9-15.7c5,10.3,12.5,17.8,23.7,20.9c-5,12-10.1,24.1-15.1,36.1C283.1,322.5,276.8,320,270.5,317.4z"/>
<path class="st3" d="M292.5,244.8c-0.7,0.6-1.4,1.1-2.1,1.7c-0.7-1.7-1.3-3.5-2-5.2c12.4-10.9,23.6-12,38-3.7
	c-0.5,1.7-1.1,3.4-1.6,5.1C313.2,234.2,301.7,235,292.5,244.8z"/>
<path class="st3" d="M286.3,264c1.5,6.3,3.6,12.2,10,15.1c3.6,1.6,7.2,3.2,10.8,4.8c-0.9,1.7-1.7,3.4-2.6,5
	c-11.3-3.2-18.8-10.6-23.7-20.9C282.6,266.6,284.5,265.3,286.3,264z"/>
<path class="st3" d="M338,259.7c0,0.6,0,1.1,0,1.7c-3.5,6.8-7,13.6-10.5,20.3c-1.6-0.7-3.2-1.4-4.7-2.2c0.2-0.5,0.4-1.1,0.6-1.6
	c8.5-7.1,11.2-17,7.4-27c-0.6-1.6-1.1-3.2-1.7-4.7c1-0.5,2-1,2.9-1.5C334,249.8,336,254.7,338,259.7z"/>
<path class="st4" d="M323.3,278c-0.2,0.5-0.4,1.1-0.6,1.6c-5.2,1.4-10.4,2.9-15.6,4.3c-3.6-1.6-7.2-3.2-10.8-4.8
	C305.3,278.7,314.3,278.4,323.3,278z"/>
<path class="st4" d="M330.7,251c-0.6-1.6-1.1-3.2-1.7-4.7c-1.3-0.9-2.6-1.8-3.9-2.7c0-0.4-0.2-0.7-0.4-1
	c-11.5-8.4-23.1-7.6-32.2,2.2c-0.7,0.6-1.4,1.1-2.1,1.7c-1.4,5.8-2.8,11.7-4.1,17.5c1.5,6.3,3.6,12.2,10,15.1c9-0.4,18-0.7,27-1.1
	C331.8,270.9,334.5,261,330.7,251z M300.8,269.1c-5.3-5.1-5.4-12.7-0.2-17.8c4.3-4.2,12.7-4.4,17.1-0.3c5.1,4.7,5.3,13,0.4,17.9
	C313.1,273.8,305.8,273.9,300.8,269.1z"/>
<g>
	<path class="st4" d="M338.5,209.3c-0.7-0.1-1.3-0.2-2-0.3C337.1,209.1,337.8,209.2,338.5,209.3c0.7-1.8,1.4-3.6,2-5.3h0
		c1.5-3.4,3-6.8,4.5-10.1c1.8-4.3,3.6-8.7,5.4-13c-8.9-10.9-17.9-21.8-26.8-32.6c-2.3,3.7-4.7,7.4-7,11c-9.3,14.7-18.7,29.5-28,44.2
		c0,0,0,0,0,0c-1.2,1.9-2.3,3.7-3.5,5.6c-2,4.4-8.1,7.4-5.5,13.4c2.8,6.4,6,12.6,9,18.9c12.4-10.9,23.6-12.1,37.9-3.8
		C330.5,228.2,334.5,218.7,338.5,209.3z"/>
	<path class="st4" d="M362.9,151.7c0.5-1.4,1.1-2.8,1.6-4.2c0.2-0.6,0.5-1.1,0.7-1.7c6.9-16,13.9-32,20.8-48
		c5.1-12.2,10.1-24.5,15.6-37.7c-7.1,3-12.9,5.9-19.1,7.8c-8.4,2.6-13.9,7.9-18,15.4c-2.7,4.9-6,9.5-9,14.2
		c-4.1,6.9-8.2,13.8-12.4,20.7c-4.5,7.1-9,14.3-13.5,21.4l0,0c-2,2.9-4.1,5.8-6.1,8.7c8.9,10.9,17.9,21.8,26.8,32.6
		C352,177.1,360.4,157.6,362.9,151.7z"/>
</g>
<path class="st4" d="M496.3,193.8c4.3-9,7.5-18.5,11.7-29.2c-8.9,4-16.2,7.5-23.7,10.7c-7.2,3.1-14.6,5.8-21.9,8.7
	c-1.9,1.3-3.7,2.8-5.8,3.8c-7.8,3.8-15.8,7.5-23.6,11.2c1.3,0.2,2.6,0.6,4,0.9c-1.3-0.3-2.6-0.6-4-0.9c-3.2,1.7-6.5,3.3-9.7,5
	c-7.8,3.3-15.6,6.7-23.5,10c-3.7,1.7-7.4,3.5-11.1,5.2c7.4,5.8,14.8,11.6,22.1,17.4c-7.4-5.8-14.8-11.6-22.1-17.4
	c-3.9,1.7-7.8,3.4-11.7,5c-9.9,4.5-19.9,9.1-29.8,13.6c-3.7,1.8-7.4,3.6-11.1,5.4c-1.4,0.5-2.7,1-4.1,1.5c2,5,4,9.9,6,14.9
	c0,0.6,0,1.1,0,1.7c0,0,0,0,0,0c-3.5,6.8-7,13.6-10.5,20.3c7,3.1,13.9,6.3,21,9.1c1.7,0.7,4.4,0.6,5.8-0.3
	c13.9-9.2,27.5-18.7,41.3-28.1c-1.8-0.3-3.7-0.8-5.5-1c1.8,0.2,3.7,0.7,5.5,1c2.6-1.7,5.3-3.4,7.9-5.1c2.2-1.6,4.3-3.1,6.5-4.7
	c-3.4-3.2-6.7-6.3-10.1-9.5c-1.2-0.6-2.4-1.2-3.6-1.8c-0.3,0.1-0.5,0.2-0.8,0.3c0.3-0.1,0.5-0.2,0.8-0.3c1.2,0.6,2.4,1.2,3.6,1.8
	c3.4,3.2,6.7,6.3,10.1,9.5c4.1-2.7,8.1-5.3,12.2-8c2.9-2.1,5.8-4.1,8.7-6.2c-5.6-4.6-11.2-9.3-16.8-13.9c-1.7-1.3-3.5-2.5-5.2-3.8
	c1.7,1.3,3.5,2.5,5.2,3.8c5.6,4.6,11.2,9.3,16.7,13.9c6.7-4.4,13.3-8.8,20-13.3c8.7-5.6,17.3-11.2,26-16.8c1.3-1.1,2.6-2.2,3.8-3.4
	c2.2-1.5,4.4-3,6.6-4.5C490.4,198.4,494.9,196.8,496.3,193.8z M392.2,242.8c0.7-0.2,1.4-0.4,2.1-0.6
	C393.6,242.4,392.9,242.6,392.2,242.8z M427.9,206.7c2.1,1.8,4.2,3.5,6.3,5.3C432.1,210.3,430,208.5,427.9,206.7
	C427.9,206.7,427.9,206.7,427.9,206.7z"/>
<path class="st5" d="M300.8,269.1c-5.3-5.1-5.4-12.7-0.2-17.8c4.3-4.2,12.7-4.4,17.1-0.3c5.1,4.7,5.3,13,0.4,17.9
	C313.1,273.8,305.8,273.9,300.8,269.1z"/>
</svg>
