<?xml version="1.0" encoding="utf-8"?>
<!-- Generator: Adobe Illustrator 21.1.0, SVG Export Plug-In . SVG Version: 6.00 Build 0)  -->
<svg version="1.1" id="Layer_1" xmlns="http://www.w3.org/2000/svg" xmlns:xlink="http://www.w3.org/1999/xlink" x="0px" y="0px"
	 viewBox="0 0 288.5 290" style="enable-background:new 0 0 288.5 290;" xml:space="preserve">
<style type="text/css">
	.st0{fill:#070100;}
	.st1{fill:#00B13D;}
	.st2{fill:#DD1E00;}
	.st3{fill:#DAE800;}
	.st4{fill:#2A1FFF;}
	.st5{fill:#1A1A1A;}
	.st6{fill:#999999;}
	.st7{fill:#808080;}
	.st8{fill:#AF1313;stroke:#000000;stroke-width:3;stroke-miterlimit:10;}
	.st9{fill:#AFAF13;stroke:#000000;stroke-width:3;stroke-miterlimit:10;}
	.st10{fill:#190000;}
	.st11{display:none;}
	.st12{display:inline;fill:#190000;}
</style>
<g id="background">
	<path class="st0" d="M143.8,274.8c-35.6,0-69.1-13.9-94.3-39.1s-39.1-58.6-39.1-94.3s13.9-69.1,39.1-94.3s58.6-39.1,94.3-39.1
		s69.1,13.9,94.3,39.1s39.1,58.6,39.1,94.3s-13.9,69.1-39.1,94.3S179.4,274.8,143.8,274.8z"/>
	<path d="M143.8,8.4c18,0,35.4,3.5,51.8,10.5c15.9,6.7,30.1,16.3,42.3,28.5c12.2,12.2,21.8,26.5,28.5,42.3
		c6.9,16.4,10.5,33.8,10.5,51.8s-3.5,35.4-10.5,51.8c-6.7,15.9-16.3,30.1-28.5,42.3c-12.2,12.2-26.5,21.8-42.3,28.5
		c-16.4,6.9-33.8,10.5-51.8,10.5S108.4,271,92,264.1c-15.9-6.7-30.1-16.3-42.3-28.5c-12.2-12.2-21.8-26.5-28.5-42.3
		c-7-16.4-10.5-33.8-10.5-51.8s3.5-35.4,10.5-51.8c6.7-15.9,16.3-30.1,28.5-42.3c12.2-12.2,26.5-21.8,42.3-28.5
		C108.4,11.9,125.8,8.4,143.8,8.4 M143.8,8C70,8,10.3,67.8,10.3,141.5S70,275,143.8,275s133.5-59.8,133.5-133.5S217.5,8,143.8,8
		L143.8,8z"/>
</g>
<g>
	<rect x="24.2" y="138.6" width="59.5" height="6.1"/>
	<path d="M83.5,138.8v5.7H24.4v-5.7H83.5 M83.9,138.4H24v6.5h59.9V138.4L83.9,138.4z"/>
</g>
<g id="green">
	<path class="st1" d="M24.2,138.1c0.8-30.7,13.2-59.6,34.9-81.4s50.5-34.3,81.2-35.1v57.6c-15.3,0.8-29.7,7.3-40.5,18.2
		s-17.2,25.3-18,40.7L24.2,138.1L24.2,138.1z"/>
	<path d="M140.1,21.8V79c-15.3,0.9-29.6,7.4-40.5,18.2c-10.8,10.9-17.2,25.3-18,40.6H24.4c0.8-30.6,13.2-59.4,34.8-81.1
		C80.9,35.1,109.6,22.7,140.1,21.8 M140.5,21.4C76.8,23.1,25.5,74.5,24,138.3h58c1.4-31.7,26.8-57.2,58.5-58.9V21.4L140.5,21.4z"/>
</g>
<g id="red">
	<path class="st2" d="M205.7,138.1c-0.7-15.3-7.1-29.8-18-40.7c-10.8-10.9-25.2-17.4-40.5-18.2V21.6c30.7,0.9,59.5,13.3,81.2,35.1
		s34.1,50.7,34.9,81.4L205.7,138.1L205.7,138.1z"/>
	<path d="M147.4,21.8c30.6,0.9,59.3,13.4,80.9,35.1c21.6,21.7,34,50.5,34.8,81.1h-57.2c-0.8-15.3-7.2-29.7-18-40.6
		c-10.8-10.9-25.2-17.4-40.5-18.2L147.4,21.8 M147,21.4v58c31.7,1.6,57,27.1,58.5,58.9h58C262,74.5,210.7,23.1,147,21.4L147,21.4z"
		/>
</g>
<g id="yellow">
	<path class="st3" d="M140.3,260.7c-63.2-1.8-114.1-52.6-116.1-115.7h57.6c0.9,15.1,7.4,29.4,18.2,40.1
		c10.8,10.8,25.1,17.1,40.3,17.9V260.7z"/>
	<path d="M81.7,145.1c1,15.1,7.4,29.4,18.2,40.1c10.8,10.7,25.1,17.1,40.2,18v57.3C77.2,258.6,26.5,208,24.5,145.1H81.7 M82.1,144.7
		h-58c1.9,63.4,53,114.4,116.5,116.1v-58C109.1,201.2,83.9,176.1,82.1,144.7L82.1,144.7z"/>
</g>
<g id="blue">
	<path class="st4" d="M147.2,203c15.2-0.8,29.4-7.2,40.3-17.9c10.8-10.7,17.2-25,18.2-40.1h57.6c-2,63.1-52.9,113.9-116.1,115.7V203
		z"/>
	<path d="M263.1,145.1C261,208,210.3,258.6,147.4,260.5v-57.3c15.1-0.9,29.4-7.2,40.2-18c10.8-10.7,17.2-24.9,18.2-40.1H263.1
		 M263.5,144.7h-58c-1.8,31.4-27,56.5-58.4,58.1v58C210.4,259.2,261.6,208.1,263.5,144.7L263.5,144.7z"/>
</g>
<g id="top-center-background">
	<path class="st5" d="M89.1,138.1c0.6-13.8,6.4-26.7,16.4-36.3c10.1-9.7,23.3-15,37.3-15c14,0,27.2,5.3,37.3,15
		c10,9.6,15.8,22.5,16.4,36.3H89.1z"/>
	<path d="M142.8,87c13.9,0,27.1,5.3,37.2,15c9.9,9.5,15.7,22.3,16.4,36H89.3c0.7-13.7,6.5-26.4,16.4-36
		C115.7,92.3,128.9,87,142.8,87 M142.8,86.6c-29,0-52.7,22.9-53.9,51.7h107.8C195.5,109.5,171.8,86.6,142.8,86.6L142.8,86.6z"/>
</g>
<g id="bottom-center-background">
	<path class="st6" d="M142.8,194.3c-29.6,0-53.8-24.1-53.8-53.8c0-0.6,0-1.3,0-2.1h107.5c0,0.8,0,1.4,0,2.1
		C196.6,170.2,172.5,194.3,142.8,194.3z"/>
	<path d="M196.4,138.6c0,0.7,0,1.3,0,1.9c0,14.3-5.6,27.8-15.7,37.9c-10.1,10.1-23.6,15.7-37.9,15.7s-27.8-5.6-37.9-15.7
		c-10.1-10.1-15.7-23.6-15.7-37.9c0-0.6,0-1.2,0-1.9H196.4 M196.7,138.3H88.9c0,0.8,0,1.5,0,2.3c0,29.8,24.2,54,54,54s54-24.2,54-54
		C196.8,139.8,196.7,139,196.7,138.3L196.7,138.3z"/>
</g>
<g>
	<path class="st7" d="M103.1,129.9c-2.4,0-3.5-0.7-3.5-2.1v-3.2h7.1v1c0,0,0,0,0.1,0h1.6c0,0,0.1,0,0.1,0v-2c0,0,0,0-0.1,0h-5.2
		c-2.4,0-3.5-0.7-3.5-2.1v-6.3c0-1.4,1.2-2.1,3.5-2.1h8.8c2.4,0,3.5,0.7,3.5,2.1v3.1h-7.1v-1c0,0,0,0-0.1,0h-1.6c0,0-0.1,0-0.1,0v2
		c0,0,0,0,0.1,0h5.2c2.4,0,3.5,0.7,3.5,2.1v6.4c0,1.4-1.2,2.1-3.5,2.1H103.1z"/>
	<path class="st7" d="M117.2,129.9V113h7.1v16.8H117.2z"/>
	<path class="st7" d="M147.3,135.1c-0.4,0-0.8,0-1.3-0.2c-0.4-0.1-0.8-0.3-1.1-0.5c-0.3-0.2-0.6-0.4-0.8-0.7s-0.3-0.5-0.3-0.8v-15.7
		c0,0,0,0-0.1,0H142c0,0-0.1,0-0.1,0v12.5h-7.1v-12.5c0,0,0,0-0.1,0h-1.6c0,0-0.1,0-0.1,0v12.5H126V113h7.1v1.1
		c0.4-0.3,1.1-0.6,1.9-0.8c0.8-0.2,1.7-0.3,2.7-0.3s1.9,0.1,2.4,0.3c0.6,0.2,1.1,0.5,1.4,1c0.5-0.5,1.2-0.8,1.9-1
		c0.8-0.2,1.7-0.3,2.9-0.3c0.6,0,1.2,0,1.7,0.2s1,0.3,1.4,0.5c0.4,0.2,0.7,0.5,0.9,0.8c0.2,0.3,0.3,0.6,0.3,0.9v15.5c0,0,0,0,0.1,0
		h17.5v4.2L147.3,135.1L147.3,135.1z M156,129.9c-2.4,0-3.5-0.7-3.5-2.1v-12.6c0-1.4,1.2-2.1,3.5-2.1h8.8c2.4,0,3.5,0.7,3.5,2.1
		v12.6c0,1.4-1.2,2.1-3.5,2.1H156z M161.3,117.3C161.3,117.3,161.3,117.3,161.3,117.3l-1.7,0c0,0-0.1,0-0.1,0v8.3c0,0,0,0,0.1,0h1.6
		c0,0,0.1,0,0.1,0V117.3z"/>
	<path class="st7" d="M178.9,129.9v-12.5c0,0,0,0-0.1,0h-1.6c0,0-0.1,0-0.1,0v12.5h-7.1V113h7.1v1.1c1.2-0.7,3-1.1,5.3-1.1
		c2.4,0,3.5,0.7,3.5,2.1v14.7H178.9z"/>
</g>
<g id="start-button">
	<path class="st8" d="M148.7,161.5c-4.1,0-7.4-3.3-7.4-7.4s3.3-7.4,7.4-7.4c4.1,0,7.4,3.3,7.4,7.4S152.8,161.5,148.7,161.5z"/>
	<path class="st8" d="M148.7,146.8c4,0,7.2,3.2,7.2,7.2s-3.2,7.2-7.2,7.2c-4,0-7.2-3.2-7.2-7.2S144.7,146.8,148.7,146.8
		 M148.7,146.5c-4.2,0-7.6,3.4-7.6,7.6s3.4,7.6,7.6,7.6c4.2,0,7.6-3.4,7.6-7.6S152.9,146.5,148.7,146.5L148.7,146.5z"/>
</g>
<g id="strict-button_1_">
	<path class="st9" d="M173.5,161.5c-4.1,0-7.4-3.3-7.4-7.4s3.3-7.4,7.4-7.4c4.1,0,7.4,3.3,7.4,7.4S177.6,161.5,173.5,161.5z"/>
	<path class="st9" d="M173.5,146.8c4,0,7.2,3.2,7.2,7.2s-3.2,7.2-7.2,7.2s-7.2-3.2-7.2-7.2S169.5,146.8,173.5,146.8 M173.5,146.5
		c-4.2,0-7.6,3.4-7.6,7.6s3.4,7.6,7.6,7.6s7.6-3.4,7.6-7.6S177.7,146.5,173.5,146.5L173.5,146.5z"/>
</g>
<text id="start-label" transform="matrix(0.9869 0 0 1 377.4561 -14.4756)" style="display:none;enable-background:new    ; font-family:'Helvetica-Bold'; font-size:17.0657px;">Start</text>
<text id="count-label" transform="matrix(0.9869 0 0 1 289.4561 -14.4756)" style="display:none;enable-background:new    ; font-family:'Helvetica-Bold'; font-size:17.0657px;">Count</text>
<text id="strict-button" transform="matrix(1 0 0 1 442.4561 -14.6104)" style="display:none;enable-background:new    ; font-family:'Helvetica-Bold'; font-size:17.035px;">Strict</text>
<g id="count-box">
	<rect x="106.2" y="145.5" class="st10" width="23.3" height="16.8"/>
	<path class="st10" d="M129.3,145.7v16.4h-22.9v-16.4H129.3 M129.7,145.3H106v17.2h23.6V145.3L129.7,145.3z"/>
</g>
<g id="strict-status" class="st11">
	<circle class="st12" cx="462" cy="-91.8" r="4.8"/>
	<path class="st12" d="M462-96c2.3,0,4.2,1.9,4.2,4.2s-1.9,4.2-4.2,4.2s-4.2-1.9-4.2-4.2S459.7-96,462-96 M462-97
		c-2.9,0-5.2,2.4-5.2,5.2s2.4,5.2,5.2,5.2s5.2-2.4,5.2-5.2S464.9-97,462-97L462-97z"/>
</g>
</svg>
